<svg width="50" height="50" viewBox="0 0 50 50" fill="none" xmlns="http://www.w3.org/2000/svg">
<mask id="mask0_279_37" style="mask-type:alpha" maskUnits="userSpaceOnUse" x="0" y="0" width="50" height="50">
<g clip-path="url(#clip0_279_37)">
<path d="M38.7105 4.45835L25.6584 0.106263C25.2311 -0.0360722 24.7691 -0.0360722 24.3418 0.106263L11.2897 4.45835C9.21447 5.14768 7.40928 6.47347 6.13059 8.24733C4.8519 10.0212 4.16474 12.1529 4.16675 14.3396V25C4.16675 40.7563 23.3334 49.4583 24.1543 49.8209C24.4205 49.9392 24.7087 50.0003 25.0001 50.0003C25.2915 50.0003 25.5796 49.9392 25.8459 49.8209C26.6668 49.4583 45.8334 40.7563 45.8334 25V14.3396C45.8354 12.1529 45.1483 10.0212 43.8696 8.24733C42.5909 6.47347 40.7857 5.14768 38.7105 4.45835ZM41.6668 25C41.6668 36.3646 28.5022 43.8188 25.0001 45.6021C21.4938 43.825 8.33342 36.3938 8.33342 25V14.3396C8.33354 13.0277 8.74649 11.7491 9.51376 10.6849C10.281 9.62073 11.3637 8.825 12.6084 8.41043L25.0001 4.27918L37.3918 8.41043C38.6365 8.825 39.7191 9.62073 40.4864 10.6849C41.2537 11.7491 41.6666 13.0277 41.6668 14.3396V25Z" fill="black"/>
<path d="M31.8749 17.2916L23.1499 26.0416L18.4749 21.1666C18.2873 20.9614 18.0605 20.7959 17.8079 20.6798C17.5554 20.5637 17.2821 20.4992 17.0043 20.4904C16.7264 20.4815 16.4496 20.5283 16.1901 20.628C15.9306 20.7277 15.6937 20.8784 15.4934 21.0711C15.293 21.2638 15.1333 21.4947 15.0235 21.7501C14.9137 22.0055 14.8562 22.2803 14.8543 22.5583C14.8524 22.8362 14.9061 23.1118 15.0123 23.3687C15.1186 23.6256 15.2751 23.8586 15.4728 24.0541L20.277 29.0541C20.6353 29.4411 21.0683 29.7514 21.5499 29.9662C22.0316 30.1811 22.5518 30.296 23.0791 30.3041H23.1478C23.6646 30.3058 24.1766 30.2048 24.654 30.007C25.1315 29.8093 25.5649 29.5186 25.9291 29.152L34.8291 20.252C35.0234 20.058 35.1777 19.8277 35.2831 19.5741C35.3884 19.3205 35.4428 19.0486 35.4431 18.774C35.4434 18.4994 35.3896 18.2274 35.2848 17.9736C35.1799 17.7198 35.0262 17.4891 34.8322 17.2947C34.6382 17.1003 34.4079 16.946 34.1543 16.8407C33.9007 16.7353 33.6288 16.681 33.3542 16.6807C33.0796 16.6804 32.8076 16.7342 32.5538 16.839C32.3 16.9438 32.0693 17.0976 31.8749 17.2916Z" fill="black"/>
</g>
</mask>
<g mask="url(#mask0_279_37)">
<rect width="50" height="50" fill="#FEB832"/>
</g>
<defs>
<clipPath id="clip0_279_37">
<rect width="50" height="50" fill="white"/>
</clipPath>
</defs>
</svg>
