<svg width="24" height="24" viewBox="0 0 24 24" fill="none" xmlns="http://www.w3.org/2000/svg">
<g id="shield-check_3917603 2" clip-path="url(#clip0_279_161)">
<path id="Vector" d="M18.581 2.14024L12.316 0.0512408C12.1109 -0.0170803 11.8891 -0.0170803 11.684 0.0512408L5.419 2.14024C4.42291 2.47112 3.55642 3.1075 2.94265 3.95895C2.32887 4.8104 1.99904 5.83363 2 6.88324V12.0002C2 19.5632 11.2 23.7402 11.594 23.9142C11.7218 23.971 11.8601 24.0004 12 24.0004C12.1399 24.0004 12.2782 23.971 12.406 23.9142C12.8 23.7402 22 19.5632 22 12.0002V6.88324C22.001 5.83363 21.6711 4.8104 21.0574 3.95895C20.4436 3.1075 19.5771 2.47112 18.581 2.14024ZM20 12.0002C20 17.4552 13.681 21.0332 12 21.8892C10.317 21.0362 4 17.4692 4 12.0002V6.88324C4.00006 6.25352 4.19828 5.63978 4.56657 5.12898C4.93486 4.61819 5.45455 4.23623 6.052 4.03724L12 2.05424L17.948 4.03724C18.5455 4.23623 19.0651 4.61819 19.4334 5.12898C19.8017 5.63978 19.9999 6.25352 20 6.88324V12.0002Z" fill="#FFFCFC"/>
<path id="Vector_2" d="M15.3 8.30008L11.112 12.5001L8.86804 10.1601C8.77798 10.0616 8.66913 9.98217 8.5479 9.92642C8.42666 9.87068 8.2955 9.83976 8.16213 9.83549C8.02877 9.83122 7.89589 9.85368 7.77134 9.90155C7.64679 9.94943 7.53308 10.0217 7.43691 10.1142C7.34074 10.2067 7.26405 10.3176 7.21137 10.4402C7.15869 10.5627 7.13107 10.6946 7.13015 10.8281C7.12923 10.9615 7.15502 11.0938 7.20601 11.2171C7.257 11.3404 7.33215 11.4523 7.42704 11.5461L9.73304 13.9461C9.90501 14.1318 10.1129 14.2808 10.3441 14.3839C10.5752 14.487 10.8249 14.5422 11.078 14.5461H11.111C11.3591 14.5469 11.6048 14.4984 11.834 14.4035C12.0632 14.3086 12.2712 14.1691 12.446 13.9931L16.718 9.72107C16.8113 9.62797 16.8854 9.51739 16.936 9.39567C16.9865 9.27394 17.0126 9.14345 17.0128 9.01164C17.0129 8.87982 16.9871 8.74927 16.9368 8.62744C16.8865 8.50561 16.8126 8.39488 16.7195 8.30158C16.6264 8.20827 16.5159 8.13422 16.3941 8.08365C16.2724 8.03308 16.1419 8.00698 16.0101 8.00684C15.8783 8.0067 15.7477 8.03252 15.6259 8.08284C15.5041 8.13315 15.3933 8.20697 15.3 8.30008Z" fill="#FFFCFC"/>
</g>
<defs>
<clipPath id="clip0_279_161">
<rect width="24" height="24" fill="white"/>
</clipPath>
</defs>
</svg>
