<svg width="24" height="24" viewBox="0 0 24 24" fill="none" xmlns="http://www.w3.org/2000/svg">
<g id="tools_11270125 1" clip-path="url(#clip0_279_155)">
<path id="Vector" d="M23.121 18.879L15.441 11.198L14.03 12.596L9.01999 7.586V3.422L3.12899 0.025L0.0439942 3.109L3.44199 9H7.60599L12.609 14.003L11.178 15.42L18.878 23.121C19.445 23.687 20.198 24 21 24C21.802 24 22.555 23.688 23.121 23.121C24.291 21.951 24.291 20.049 23.121 18.879ZM7.01999 7H4.59799L2.54399 3.439L3.45899 2.523L7.02099 4.578L7.01999 7ZM21.707 21.707C21.33 22.086 20.671 22.086 20.293 21.707L14.013 15.428L15.434 14.021L21.706 20.293C22.096 20.683 22.096 21.317 21.706 21.707H21.707ZM11 6.863V2.374C12.369 0.917 14.307 0 16.46 0C17.641 0 18.778 0.272 19.841 0.811L21.072 1.435L16.253 6.253C16.064 6.442 15.96 6.693 15.96 6.96C15.96 7.227 16.064 7.478 16.252 7.666C16.631 8.045 17.289 8.044 17.667 7.666L22.49 2.843L23.118 4.057C23.676 5.134 23.959 6.292 23.959 7.499C23.959 10.049 22.678 12.302 20.728 13.657L19.281 12.21C20.882 11.247 21.959 9.498 21.959 7.498C21.959 7.1 21.917 6.709 21.833 6.327L19.081 9.079C17.911 10.248 16.008 10.249 14.838 9.079C14.272 8.514 13.959 7.76 13.959 6.958C13.959 6.156 14.271 5.403 14.838 4.837L17.565 2.11C17.203 2.036 16.835 1.998 16.46 1.998C13.643 1.998 11.317 4.128 11 6.861V6.863ZM9.17099 16.242L10.585 17.656L5.11999 23.121C4.55399 23.687 3.79999 24 2.99899 24C2.19799 24 1.44399 23.688 0.876994 23.121C-0.292006 21.951 -0.292006 20.049 0.876994 18.879L7.76599 11.99L9.17999 13.404L2.29099 20.293C1.90099 20.683 1.90099 21.317 2.29099 21.707C2.66899 22.086 3.32799 22.086 3.70499 21.707L9.17099 16.242Z" fill="#FFFCFC"/>
</g>
<defs>
<clipPath id="clip0_279_155">
<rect width="24" height="24" fill="white"/>
</clipPath>
</defs>
</svg>
