<svg width="24" height="24" viewBox="0 0 24 24" fill="none" xmlns="http://www.w3.org/2000/svg">
<g id="review_13085512 2" clip-path="url(#clip0_279_178)">
<path id="Vector" d="M9 12C12.309 12 15 9.309 15 6C15 2.691 12.309 0 9 0C5.691 0 3 2.691 3 6C3 9.309 5.691 12 9 12ZM9 1C11.757 1 14 3.243 14 6C14 8.757 11.757 11 9 11C6.243 11 4 8.757 4 6C4 3.243 6.243 1 9 1ZM10.5 14.5C10.5 14.776 10.276 15 10 15H9.5C4.813 15 1 18.813 1 23.5C1 23.776 0.776 24 0.5 24C0.224 24 0 23.776 0 23.5C0 18.262 4.262 14 9.5 14H10C10.276 14 10.5 14.224 10.5 14.5ZM23.914 16.759C23.711 16.202 23.176 15.828 22.583 15.828H20.185L19.329 13.422C19.123 12.871 18.59 12.5 18.001 12.5C17.412 12.5 16.879 12.871 16.671 13.429L15.817 15.828H13.419C12.827 15.828 12.293 16.201 12.089 16.755C11.884 17.311 12.05 17.942 12.51 18.331L14.422 19.887L13.665 22.159C13.486 22.732 13.688 23.359 14.168 23.717C14.411 23.9 14.713 24 15.017 24C15.299 24 15.572 23.917 15.805 23.761L18.013 22.283L20.261 23.747C20.765 24.073 21.421 24.048 21.9 23.682C22.376 23.315 22.568 22.686 22.377 22.106L21.596 19.879L23.499 18.329C23.952 17.947 24.12 17.316 23.917 16.76L23.914 16.759ZM22.858 17.558L20.689 19.325C20.525 19.458 20.462 19.679 20.533 19.878L21.428 22.428C21.484 22.596 21.428 22.782 21.288 22.888C21.145 22.996 20.952 23.004 20.804 22.908L18.28 21.264C18.113 21.155 17.896 21.157 17.729 21.267L15.247 22.929C15.104 23.024 14.905 23.021 14.767 22.915C14.625 22.81 14.566 22.625 14.617 22.464L15.479 19.873C15.544 19.676 15.481 19.458 15.32 19.328L13.148 17.561C13.016 17.449 12.967 17.264 13.028 17.1C13.088 16.936 13.245 16.827 13.419 16.827H16.17C16.382 16.827 16.57 16.694 16.641 16.495L17.612 13.77C17.733 13.445 18.274 13.452 18.391 13.763L19.364 16.494C19.434 16.693 19.623 16.826 19.835 16.826H22.586C22.761 16.826 22.918 16.936 22.978 17.1C23.038 17.264 22.988 17.45 22.862 17.557L22.858 17.558Z" fill="#FFFCFC"/>
</g>
<defs>
<clipPath id="clip0_279_178">
<rect width="24" height="24" fill="white"/>
</clipPath>
</defs>
</svg>
