<svg width="50" height="50" viewBox="0 0 50 50" fill="none" xmlns="http://www.w3.org/2000/svg">
<mask id="mask0_279_50" style="mask-type:alpha" maskUnits="userSpaceOnUse" x="0" y="0" width="50" height="50">
<g clip-path="url(#clip0_279_50)">
<path d="M47.1191 5.37109C47.5423 6.10352 47.9248 6.80339 48.2666 7.4707C48.6084 8.13802 48.9176 8.81348 49.1943 9.49707C49.471 10.1807 49.6663 10.8887 49.7803 11.6211C49.8942 12.3535 49.9674 13.1673 50 14.0625C50 15.3483 49.8372 16.5853 49.5117 17.7734C49.1862 18.9616 48.7142 20.0846 48.0957 21.1426C47.4772 22.2005 46.7367 23.1527 45.874 23.999C45.0114 24.8454 44.0592 25.5778 43.0176 26.1963C41.9759 26.8148 40.861 27.2868 39.6729 27.6123C38.4847 27.9378 37.2396 28.1087 35.9375 28.125C35.5632 28.125 35.1888 28.1087 34.8145 28.0762C34.4401 28.0436 34.0576 27.9948 33.667 27.9297L13.9893 47.6074C13.208 48.3887 12.321 48.9827 11.3281 49.3896C10.3353 49.7966 9.28548 50 8.17871 50C7.05566 50 5.99772 49.7884 5.00488 49.3652C4.01204 48.9421 3.14941 48.3561 2.41699 47.6074C1.68457 46.8587 1.09863 45.988 0.65918 44.9951C0.219727 44.0023 0 42.9443 0 41.8213C0 40.7308 0.203451 39.6891 0.610352 38.6963C1.01725 37.7034 1.61133 36.8083 2.39258 36.0107L22.0703 16.333C22.0052 15.9587 21.9564 15.5843 21.9238 15.21C21.8913 14.8356 21.875 14.4531 21.875 14.0625C21.875 12.7767 22.0378 11.5397 22.3633 10.3516C22.6888 9.16341 23.1608 8.04036 23.7793 6.98242C24.3978 5.92448 25.1383 4.97233 26.001 4.12598C26.8636 3.27962 27.8158 2.5472 28.8574 1.92871C29.8991 1.31022 31.014 0.838216 32.2021 0.512695C33.3903 0.187174 34.6354 0.016276 35.9375 0C36.8164 0 37.6221 0.0651042 38.3545 0.195312C39.0869 0.325521 39.8031 0.528971 40.5029 0.805664C41.2028 1.08236 41.8783 1.38346 42.5293 1.70898C43.1803 2.03451 43.8802 2.42513 44.6289 2.88086L35.0098 12.5L37.5 14.9902L47.1191 5.37109ZM35.9375 25C37.4512 25 38.8672 24.7152 40.1855 24.1455C41.5039 23.5758 42.6595 22.7946 43.6523 21.8018C44.6452 20.8089 45.4264 19.6533 45.9961 18.335C46.5658 17.0166 46.8587 15.5924 46.875 14.0625C46.875 12.8743 46.6797 11.7269 46.2891 10.6201L37.5 19.3848L30.6152 12.5L39.3799 3.71094C38.2731 3.32031 37.1257 3.125 35.9375 3.125C34.4238 3.125 33.0078 3.40983 31.6895 3.97949C30.3711 4.54915 29.2155 5.3304 28.2227 6.32324C27.2298 7.31608 26.4486 8.47168 25.8789 9.79004C25.3092 11.1084 25.0163 12.5326 25 14.0625C25 14.6322 25.0488 15.1855 25.1465 15.7227C25.2441 16.2598 25.3581 16.7969 25.4883 17.334L4.61426 38.2324C4.14225 38.7044 3.77604 39.2497 3.51562 39.8682C3.25521 40.4867 3.125 41.1377 3.125 41.8213C3.125 42.5049 3.25521 43.1559 3.51562 43.7744C3.77604 44.3929 4.14225 44.93 4.61426 45.3857C5.08626 45.8415 5.62337 46.1995 6.22559 46.46C6.8278 46.7204 7.47884 46.8587 8.17871 46.875C8.8623 46.875 9.51335 46.7448 10.1318 46.4844C10.7503 46.224 11.2956 45.8577 11.7676 45.3857L32.666 24.5117C33.2031 24.6419 33.7402 24.7559 34.2773 24.8535C34.8145 24.9512 35.3678 25 35.9375 25Z" fill="black"/>
</g>
</mask>
<g mask="url(#mask0_279_50)">
<rect width="50" height="50" fill="#FEB832"/>
</g>
<defs>
<clipPath id="clip0_279_50">
<rect width="50" height="50" fill="white"/>
</clipPath>
</defs>
</svg>
