<svg width="50" height="50" viewBox="0 0 50 50" fill="none" xmlns="http://www.w3.org/2000/svg">
<mask id="mask0_279_44" style="mask-type:alpha" maskUnits="userSpaceOnUse" x="0" y="0" width="50" height="50">
<g clip-path="url(#clip0_279_44)">
<path d="M47.6021 15.9998L28.8521 1.32692C27.7522 0.465277 26.3952 -0.00292969 24.998 -0.00292969C23.6007 -0.00292969 22.2437 0.465277 21.1438 1.32692L2.39379 15.9998C1.64544 16.5832 1.04062 17.3302 0.625684 18.1835C0.210753 19.0369 -0.00326559 19.9739 3.76638e-05 20.9228V49.9998H50V20.9228C50.0028 19.9735 49.7882 19.0363 49.3725 18.1829C48.9569 17.3296 48.3512 16.5828 47.6021 15.9998ZM45.8334 45.8332H4.1667V20.9228C4.16569 20.6062 4.23728 20.2936 4.37596 20.009C4.51465 19.7244 4.71674 19.4754 4.9667 19.2811L23.7167 4.60817C24.0831 4.32164 24.5349 4.16597 25 4.16597C25.4652 4.16597 25.917 4.32164 26.2834 4.60817L45.0334 19.2811C45.2833 19.4754 45.4854 19.7244 45.6241 20.009C45.7628 20.2936 45.8344 20.6062 45.8334 20.9228V45.8332ZM25 16.679C22.9375 16.6786 20.9213 17.2905 19.2069 18.4372C17.4925 19.5838 16.1571 21.2136 15.3699 23.12C14.5827 25.0264 14.3792 27.1236 14.7851 29.1457C15.191 31.1679 16.1881 33.0241 17.65 34.479L25 41.6665L32.3667 34.4623C33.8239 33.0055 34.8163 31.1493 35.2184 29.1284C35.6205 27.1075 35.4142 25.0128 34.6256 23.1091C33.837 21.2055 32.5016 19.5785 30.7882 18.4339C29.0749 17.2893 27.0605 16.6786 25 16.679ZM29.4355 31.4998L25 35.8332L20.5792 31.5165C19.706 30.6431 19.1111 29.5305 18.8696 28.3193C18.6282 27.108 18.751 25.8524 19.2226 24.7109C19.6943 23.5694 20.4935 22.5932 21.5195 21.9056C22.5455 21.218 23.7522 20.8498 24.9873 20.8475C26.2223 20.8452 27.4304 21.2088 28.459 21.8926C29.4876 22.5763 30.2905 23.5495 30.7664 24.6892C31.2423 25.8289 31.3699 27.084 31.133 28.2962C30.8961 29.5083 30.3054 30.6231 29.4355 31.4998ZM27.0834 27.0832C27.0834 27.4952 26.9612 27.898 26.7323 28.2406C26.5033 28.5832 26.178 28.8502 25.7973 29.0079C25.4166 29.1656 24.9977 29.2069 24.5936 29.1265C24.1895 29.0461 23.8183 28.8477 23.5269 28.5563C23.2355 28.2649 23.0371 27.8937 22.9567 27.4896C22.8764 27.0855 22.9176 26.6666 23.0753 26.2859C23.233 25.9052 23.5 25.5799 23.8426 25.3509C24.1852 25.122 24.588 24.9998 25 24.9998C25.5526 24.9998 26.0825 25.2193 26.4732 25.61C26.8639 26.0007 27.0834 26.5306 27.0834 27.0832Z" fill="black"/>
</g>
</mask>
<g mask="url(#mask0_279_44)">
<rect width="50" height="50" fill="#FEB832"/>
</g>
<defs>
<clipPath id="clip0_279_44">
<rect width="50" height="50" fill="white"/>
</clipPath>
</defs>
</svg>
